<?xml version="1.0" encoding="utf-8"?>
<!-- Generator: Adobe Illustrator 16.0.3, SVG Export Plug-In . SVG Version: 6.00 Build 0)  -->
<!DOCTYPE svg PUBLIC "-//W3C//DTD SVG 1.1//EN" "http://www.w3.org/Graphics/SVG/1.1/DTD/svg11.dtd">
<svg version="1.1" id="Layer_1" xmlns="http://www.w3.org/2000/svg" xmlns:xlink="http://www.w3.org/1999/xlink" x="0px" y="0px"
	 width="200px" height="45.667px" viewBox="0 0 200 45.667" enable-background="new 0 0 200 45.667" xml:space="preserve">
<g>
	<g>
		<g>
			<path fill="#231F20" d="M50.616,17.387v2.564c-1.377-0.842-2.653-1.264-3.828-1.264c-0.867,0-1.3,0.295-1.3,0.887
				c0,0.154,0.091,0.306,0.274,0.456c0.183,0.15,0.881,0.467,2.096,0.951s2.073,1.042,2.576,1.674
				c0.502,0.633,0.753,1.326,0.753,2.08c0,1.192-0.405,2.113-1.215,2.762c-0.81,0.649-1.965,0.973-3.463,0.973
				c-1.54,0-2.909-0.279-4.108-0.838v-2.54c1.475,0.648,2.71,0.972,3.707,0.972c1.167,0,1.75-0.283,1.75-0.848
				c0-0.218-0.108-0.424-0.324-0.619c-0.216-0.194-0.939-0.531-2.169-1.013c-1.23-0.481-2.073-1.01-2.526-1.586
				s-0.68-1.217-0.68-1.922c0-1.046,0.435-1.897,1.306-2.554c0.871-0.657,2.019-0.986,3.445-0.986
				C48.278,16.536,49.514,16.819,50.616,17.387z"/>
			<path fill="#231F20" d="M63.376,25.116v2.588c-1.41,0.51-2.702,0.766-3.876,0.766c-2.018,0-3.63-0.541-4.837-1.624
				c-1.207-1.083-1.811-2.516-1.811-4.3c0-1.744,0.609-3.181,1.829-4.313c1.219-1.131,2.772-1.697,4.66-1.697
				c1.215,0,2.503,0.251,3.865,0.754v2.686c-0.997-0.51-1.977-0.766-2.941-0.766c-1.078,0-1.94,0.3-2.588,0.901
				c-0.648,0.601-0.972,1.404-0.972,2.411c0,1.015,0.316,1.832,0.948,2.453s1.462,0.932,2.491,0.932
				C60.905,25.906,61.982,25.643,63.376,25.116z"/>
			<path fill="#231F20" d="M69.452,11.274v7.182H69.5c1.004-1.28,2.216-1.92,3.634-1.92c1.223,0,2.23,0.388,3.02,1.162
				s1.185,1.851,1.185,3.23v7.323H73.73v-6.559c0-1.671-0.62-2.507-1.859-2.507c-0.819,0-1.625,0.58-2.418,1.74v7.326h-3.609V11.274
				H69.452z"/>
			<path fill="#231F20" d="M86.223,16.536c1.799,0,3.324,0.527,4.576,1.582c1.251,1.055,1.877,2.522,1.877,4.404
				c0,1.89-0.636,3.354-1.908,4.392s-2.787,1.557-4.545,1.557c-1.904,0-3.461-0.554-4.673-1.661
				c-1.211-1.107-1.816-2.544-1.816-4.313c0-1.8,0.618-3.244,1.853-4.331S84.367,16.536,86.223,16.536z M86.223,26.331
				c1.726,0,2.588-1.303,2.588-3.907c0-2.491-0.863-3.737-2.588-3.737c-0.826,0-1.473,0.329-1.938,0.986s-0.699,1.599-0.699,2.824
				C83.585,25.053,84.464,26.331,86.223,26.331z"/>
			<path fill="#231F20" d="M98.777,11.274v16.977h-3.609V11.274H98.777z"/>
			<path fill="#231F20" d="M113.554,25.419v2.005c-1.199,0.697-2.324,1.045-3.379,1.045c-1.133,0-1.807-0.429-2.016-1.288
				c-1.256,0.859-2.516,1.288-3.781,1.288c-0.891,0-1.648-0.282-2.271-0.846c-0.624-0.564-0.937-1.22-0.937-1.966
				c0-0.998,0.323-1.803,0.967-2.416c0.644-0.612,2.595-1.401,5.851-2.367c0.082-1.28-0.582-1.92-1.992-1.92
				c-1.531,0-2.941,0.64-4.229,1.92v-2.941c1.506-0.932,3.164-1.398,4.971-1.398c3.24,0,4.859,1.165,4.859,3.492v5.232
				c0,0.536,0.199,0.803,0.596,0.803C112.493,26.063,112.946,25.849,113.554,25.419z M107.987,25.465v-2.78
				c-1.207,0.423-2.035,0.803-2.484,1.14s-0.674,0.766-0.674,1.287c0,0.333,0.113,0.62,0.34,0.859s0.502,0.36,0.826,0.36
				C106.675,26.331,107.341,26.042,107.987,25.465z"/>
			<path fill="#231F20" d="M118.755,16.779v3.281h0.049c1.045-2.35,2.265-3.524,3.658-3.524c0.664,0,1.462,0.349,2.394,1.045
				l-0.996,3.196c-0.892-0.567-1.604-0.851-2.139-0.851c-0.835,0-1.538,0.518-2.109,1.552c-0.57,1.035-0.856,1.637-0.856,1.808
				v4.965h-3.609V16.779H118.755z"/>
			<path fill="#231F20" d="M129.887,11.274v16.977h-3.609V11.274H129.887z"/>
			<path fill="#231F20" d="M143.889,16.779l-7.688,16.978h-3.847l3.369-7.38l-4.487-9.597h3.85l2.428,5.91l2.591-5.91H143.889z"/>
			<path fill="#ED2131" d="M153.281,17.387v2.564c-1.378-0.842-2.653-1.264-3.828-1.264c-0.867,0-1.301,0.295-1.301,0.887
				c0,0.154,0.092,0.306,0.274,0.456s0.882,0.467,2.097,0.951s2.073,1.042,2.575,1.674c0.503,0.633,0.754,1.326,0.754,2.08
				c0,1.192-0.405,2.113-1.216,2.762c-0.81,0.649-1.964,0.973-3.463,0.973c-1.54,0-2.909-0.279-4.107-0.838v-2.54
				c1.474,0.648,2.71,0.972,3.706,0.972c1.167,0,1.75-0.283,1.75-0.848c0-0.218-0.108-0.424-0.323-0.619
				c-0.216-0.194-0.939-0.531-2.17-1.013s-2.072-1.01-2.525-1.586c-0.454-0.576-0.681-1.217-0.681-1.922
				c0-1.046,0.436-1.897,1.307-2.554c0.87-0.657,2.019-0.986,3.444-0.986C150.943,16.536,152.18,16.819,153.281,17.387z"/>
			<path fill="#ED2131" d="M164.255,16.779v2.467h-4.181v4.727c0,0.567,0.156,1.015,0.468,1.343s0.743,0.492,1.294,0.492
				c0.746,0,1.552-0.223,2.419-0.668v2.613c-1.15,0.478-2.265,0.717-3.342,0.717c-1.41,0-2.504-0.365-3.281-1.094
				c-0.778-0.729-1.167-1.798-1.167-3.208v-4.921h-1.641v-0.705l4.801-5.372h0.449v3.609H164.255z"/>
			<path fill="#ED2131" d="M177.829,25.419v2.005c-1.199,0.697-2.325,1.045-3.379,1.045c-1.134,0-1.807-0.429-2.017-1.288
				c-1.256,0.859-2.516,1.288-3.78,1.288c-0.891,0-1.648-0.282-2.272-0.846s-0.936-1.22-0.936-1.966
				c0-0.998,0.322-1.803,0.967-2.416c0.644-0.612,2.594-1.401,5.851-2.367c0.081-1.28-0.583-1.92-1.992-1.92
				c-1.531,0-2.941,0.64-4.229,1.92v-2.941c1.507-0.932,3.164-1.398,4.971-1.398c3.24,0,4.86,1.165,4.86,3.492v5.232
				c0,0.536,0.199,0.803,0.596,0.803C176.768,26.063,177.222,25.849,177.829,25.419z M172.263,25.465v-2.78
				c-1.207,0.423-2.035,0.803-2.484,1.14c-0.45,0.337-0.675,0.766-0.675,1.287c0,0.333,0.113,0.62,0.34,0.859
				c0.228,0.24,0.503,0.36,0.827,0.36C170.95,26.331,171.615,26.042,172.263,25.465z"/>
			<path fill="#ED2131" d="M187.563,16.779v2.467h-4.181v4.727c0,0.567,0.156,1.015,0.468,1.343s0.743,0.492,1.294,0.492
				c0.746,0,1.552-0.223,2.419-0.668v2.613c-1.15,0.478-2.265,0.717-3.342,0.717c-1.41,0-2.504-0.365-3.281-1.094
				c-0.778-0.729-1.167-1.798-1.167-3.208v-4.921h-1.641v-0.705l4.801-5.372h0.449v3.609H187.563z"/>
			<path fill="#ED2131" d="M197.31,17.387v2.564c-1.378-0.842-2.653-1.264-3.828-1.264c-0.867,0-1.301,0.295-1.301,0.887
				c0,0.154,0.092,0.306,0.274,0.456s0.882,0.467,2.097,0.951s2.073,1.042,2.575,1.674c0.503,0.633,0.754,1.326,0.754,2.08
				c0,1.192-0.405,2.113-1.216,2.762c-0.81,0.649-1.964,0.973-3.463,0.973c-1.54,0-2.909-0.279-4.107-0.838v-2.54
				c1.474,0.648,2.71,0.972,3.706,0.972c1.167,0,1.75-0.283,1.75-0.848c0-0.218-0.108-0.424-0.323-0.619
				c-0.216-0.194-0.939-0.531-2.17-1.013s-2.072-1.01-2.525-1.586c-0.454-0.576-0.681-1.217-0.681-1.922
				c0-1.046,0.436-1.897,1.307-2.554c0.87-0.657,2.019-0.986,3.444-0.986C194.972,16.536,196.208,16.819,197.31,17.387z"/>
		</g>
		<g>
			<g>
				<path fill-rule="evenodd" clip-rule="evenodd" fill="#231F20" d="M36.052,13.465c0,0.468,0,0.883,0,1.299
					c-0.002,3.832-0.004,7.664-0.007,11.497c-0.002,1.469-0.57,2.03-2.059,2.033c-0.993,0.001-1.987,0.009-2.98,0.001
					c-1.064-0.006-1.715-0.619-1.723-1.671c-0.018-2.591-0.014-5.183-0.005-7.773c0-0.176,0.061-0.426,0.185-0.519
					C31.624,16.72,33.798,15.125,36.052,13.465z"/>
			</g>
			<g>
				<g>
					<path fill-rule="evenodd" clip-rule="evenodd" fill="#ED2131" d="M17.48,21.105c0.752-0.292,1.468-0.53,2.139-0.857
						c0.177-0.086,0.302-0.451,0.304-0.689c0.022-2.348,0.014-4.697,0.014-7.046c0-1.49,0.544-2.03,2.052-2.031
						c0.997-0.001,1.994-0.009,2.991,0.003c1.088,0.014,1.723,0.649,1.735,1.748c0.013,1.241,0.002,2.482,0.002,3.723
						c0,0.237,0,0.473,0,0.863c0.875-0.514,1.644-0.937,2.373-1.418c0.142-0.095,0.172-0.427,0.173-0.649
						c0.01-3.59,0.007-7.18,0.007-10.77c0-1.323,0.572-1.898,1.898-1.902c0.975-0.003,1.95-0.001,2.925,0.002
						c1.385,0.003,1.957,0.582,1.959,1.993c0.003,1.928,0,3.855,0,5.784c0,0.234,0,0.471,0,0.931
						c1.754-1.411,3.358-2.703,5.115-4.117c-1.054,0-1.896,0-2.74,0c-0.02-0.042-0.04-0.085-0.06-0.127
						c2.388-1.629,4.774-3.257,7.16-4.886c0.043,0.035,0.086,0.071,0.13,0.105c-0.985,2.451-1.971,4.902-3.021,7.511
						c-0.341-0.809-0.62-1.47-0.934-2.213c-0.173,0.149-0.319,0.261-0.448,0.391C34.23,14.57,26.171,20.191,16.931,24.04
						c-2.254,0.938-4.64,1.617-7.021,2.179c-1.39,0.329-2.905,0.345-4.34,0.228c-3.294-0.269-4.711-2.385-3.893-5.59
						c0.569-2.229,1.737-4.164,3.077-5.993C8.366,9.934,17.838,2.285,18.006,2.228c-0.14,0.166-0.204,0.254-0.281,0.328
						c-0.095,0.093-0.202,0.173-0.303,0.259c-3.446,2.943-6.693,6.076-9.316,9.799c-1.203,1.707-2.271,3.493-2.691,5.583
						c-0.459,2.284,0.52,3.828,2.798,4.313c0.747,0.159,1.527,0.16,2.418,0.244c0-0.677-0.001-1.242,0-1.808
						c0.003-1.476,0.512-1.977,2.006-1.979c0.842,0,1.684,0,2.525,0.001C16.864,18.971,17.246,19.308,17.48,21.105z"/>
				</g>
				<g>
					<path fill-rule="evenodd" clip-rule="evenodd" fill="#231F20" d="M26.72,20.205c0,1.419,0.001,2.784-0.001,4.149
						c-0.001,0.817,0.027,1.636-0.026,2.45c-0.058,0.899-0.678,1.479-1.548,1.488c-1.193,0.014-2.388,0.01-3.581-0.017
						c-1.037-0.023-1.642-0.647-1.652-1.677c-0.006-0.774,0.001-1.549,0.038-2.32c0.009-0.185,0.113-0.451,0.256-0.531
						C22.332,22.571,24.474,21.42,26.72,20.205z"/>
				</g>
				<g>
					<path fill-rule="evenodd" clip-rule="evenodd" fill="#231F20" d="M10.834,27.306c2.15-0.721,4.301-1.438,6.606-2.209
						c-0.052,0.745-0.041,1.462-0.168,2.152c-0.111,0.6-0.837,1.071-1.445,1.074c-1.122,0.003-2.245,0.005-3.368,0.002
						C11.508,28.323,11.054,28.035,10.834,27.306z"/>
				</g>
			</g>
		</g>
	</g>
	<g>
		<path fill="#231F20" d="M73.342,37.313c0.484,0,0.832,0.119,1.042,0.358c0.211,0.239,0.316,0.592,0.316,1.061v0.51
			c0,0.469-0.105,0.822-0.316,1.061c-0.21,0.239-0.558,0.358-1.042,0.358h-2.616v1.323c0,0.101-0.046,0.151-0.139,0.151h-0.682
			c-0.097,0-0.146-0.051-0.146-0.151V37.52c0-0.138,0.063-0.207,0.189-0.207H73.342z M70.726,39.751h2.42
			c0.215,0,0.366-0.05,0.455-0.151c0.088-0.101,0.132-0.255,0.132-0.461v-0.262c0-0.207-0.044-0.36-0.132-0.461
			c-0.089-0.101-0.24-0.152-0.455-0.152h-2.338c-0.055,0-0.082,0.028-0.082,0.083V39.751z"/>
		<path fill="#231F20" d="M78.542,38.354c0.282,0,0.521,0.026,0.714,0.079s0.349,0.135,0.464,0.248
			c0.116,0.112,0.199,0.257,0.25,0.434c0.051,0.177,0.076,0.389,0.076,0.637v0.992c0,0.248-0.025,0.459-0.076,0.637
			c-0.05,0.176-0.134,0.321-0.25,0.434c-0.116,0.113-0.271,0.193-0.464,0.244s-0.432,0.076-0.714,0.076h-1.788
			c-0.287,0-0.525-0.025-0.717-0.076s-0.345-0.131-0.461-0.244c-0.116-0.112-0.199-0.258-0.25-0.434
			c-0.05-0.178-0.076-0.39-0.076-0.637v-0.992c0-0.248,0.025-0.46,0.076-0.637c0.051-0.177,0.134-0.321,0.25-0.434
			c0.116-0.113,0.27-0.195,0.461-0.248s0.431-0.079,0.717-0.079H78.542z M76.154,40.571c0,0.147,0.011,0.269,0.032,0.365
			c0.021,0.097,0.058,0.173,0.111,0.231c0.052,0.058,0.123,0.099,0.211,0.124s0.2,0.038,0.335,0.038h1.611
			c0.139,0,0.253-0.013,0.341-0.038s0.159-0.066,0.212-0.124c0.052-0.058,0.089-0.134,0.11-0.231
			c0.021-0.096,0.032-0.218,0.032-0.365v-0.654c0-0.143-0.011-0.262-0.032-0.358c-0.021-0.096-0.058-0.174-0.11-0.234
			c-0.053-0.06-0.124-0.101-0.212-0.124s-0.202-0.035-0.341-0.035h-1.611c-0.135,0-0.247,0.012-0.335,0.035
			s-0.159,0.064-0.211,0.124c-0.053,0.06-0.09,0.138-0.111,0.234c-0.021,0.097-0.032,0.216-0.032,0.358V40.571z"/>
		<path fill="#231F20" d="M81.216,38.354c0.076,0,0.125,0.037,0.146,0.11l0.815,2.832c0.013,0.031,0.034,0.048,0.063,0.048h0.025
			c0.038,0,0.059-0.017,0.063-0.048l0.853-2.611c0.042-0.124,0.092-0.21,0.148-0.258c0.057-0.048,0.143-0.072,0.256-0.072h0.752
			c0.113,0,0.199,0.024,0.256,0.072c0.057,0.048,0.106,0.134,0.148,0.258l0.847,2.611c0.004,0.031,0.025,0.048,0.063,0.048h0.025
			c0.029,0,0.051-0.017,0.063-0.048l0.821-2.832c0.013-0.073,0.061-0.11,0.146-0.11h0.714c0.055,0,0.089,0.015,0.104,0.044
			c0.015,0.03,0.016,0.07,0.003,0.121l-0.96,3.188c-0.051,0.176-0.111,0.29-0.18,0.346c-0.069,0.055-0.172,0.082-0.307,0.082h-0.796
			c-0.11,0-0.194-0.031-0.253-0.093s-0.116-0.173-0.17-0.335l-0.834-2.513c-0.008-0.028-0.027-0.042-0.057-0.042h-0.038
			c-0.034,0-0.053,0.014-0.057,0.042l-0.828,2.513c-0.055,0.162-0.111,0.273-0.17,0.335s-0.143,0.093-0.253,0.093h-0.796
			c-0.135,0-0.237-0.027-0.307-0.082c-0.069-0.056-0.129-0.17-0.18-0.346l-0.948-3.188c-0.013-0.05-0.013-0.09,0-0.121
			c0.013-0.03,0.048-0.044,0.107-0.044H81.216z"/>
		<path fill="#231F20" d="M91.15,38.354c0.215,0,0.393,0.02,0.534,0.059s0.253,0.103,0.335,0.192c0.082,0.09,0.14,0.207,0.174,0.352
			s0.051,0.32,0.051,0.527v0.654c0,0.147-0.03,0.249-0.089,0.307s-0.149,0.086-0.271,0.086h-3.191v0.166
			c0,0.216,0.047,0.372,0.143,0.469c0.095,0.096,0.279,0.145,0.553,0.145h2.635c0.076,0,0.113,0.041,0.113,0.123v0.579
			c0,0.083-0.038,0.124-0.113,0.124h-2.724c-0.287,0-0.526-0.025-0.717-0.076c-0.192-0.051-0.346-0.131-0.461-0.244
			c-0.116-0.112-0.199-0.258-0.25-0.434c-0.051-0.178-0.076-0.39-0.076-0.637v-0.992c0-0.248,0.025-0.46,0.076-0.637
			c0.05-0.177,0.134-0.321,0.25-0.434c0.116-0.113,0.27-0.195,0.461-0.248c0.191-0.053,0.431-0.079,0.717-0.079H91.15z
			 M88.691,39.917h2.56c0.071,0,0.107-0.039,0.107-0.117v-0.29c0-0.142-0.028-0.243-0.083-0.303s-0.156-0.09-0.303-0.09h-1.586
			c-0.274,0-0.458,0.047-0.553,0.142c-0.095,0.094-0.143,0.251-0.143,0.472V39.917z"/>
		<path fill="#231F20" d="M96.173,38.354c0.076,0,0.114,0.041,0.114,0.124v0.578c0,0.083-0.038,0.124-0.114,0.124h-1.681
			c-0.135,0-0.247,0.013-0.335,0.038s-0.159,0.066-0.212,0.124s-0.089,0.135-0.11,0.234c-0.021,0.099-0.032,0.22-0.032,0.362v2.046
			c0,0.101-0.046,0.151-0.139,0.151h-0.619c-0.097,0-0.146-0.051-0.146-0.151v-2.232c0-0.248,0.025-0.46,0.076-0.637
			c0.05-0.177,0.134-0.321,0.25-0.434c0.116-0.113,0.27-0.195,0.461-0.248c0.191-0.053,0.431-0.079,0.717-0.079H96.173z"/>
		<path fill="#231F20" d="M100.009,38.354c0.215,0,0.393,0.02,0.534,0.059s0.253,0.103,0.335,0.192
			c0.082,0.09,0.14,0.207,0.174,0.352s0.051,0.32,0.051,0.527v0.654c0,0.147-0.03,0.249-0.089,0.307
			c-0.059,0.058-0.149,0.086-0.271,0.086h-3.191v0.166c0,0.216,0.047,0.372,0.143,0.469c0.095,0.096,0.279,0.145,0.553,0.145h2.635
			c0.076,0,0.113,0.041,0.113,0.123v0.579c0,0.083-0.038,0.124-0.113,0.124h-2.724c-0.287,0-0.526-0.025-0.717-0.076
			c-0.192-0.051-0.346-0.131-0.461-0.244c-0.116-0.112-0.199-0.258-0.25-0.434c-0.051-0.178-0.076-0.39-0.076-0.637v-0.992
			c0-0.248,0.025-0.46,0.076-0.637c0.05-0.177,0.134-0.321,0.25-0.434c0.116-0.113,0.27-0.195,0.461-0.248
			c0.191-0.053,0.431-0.079,0.717-0.079H100.009z M97.551,39.917h2.56c0.071,0,0.107-0.039,0.107-0.117v-0.29
			c0-0.142-0.028-0.243-0.083-0.303s-0.156-0.09-0.303-0.09h-1.586c-0.274,0-0.458,0.047-0.553,0.142
			c-0.095,0.094-0.143,0.251-0.143,0.472V39.917z"/>
		<path fill="#231F20" d="M105.601,38.354v-1.233c0-0.101,0.047-0.152,0.14-0.152h0.619c0.093,0,0.139,0.051,0.139,0.152v3.623
			c0,0.248-0.025,0.459-0.075,0.637c-0.051,0.176-0.134,0.321-0.25,0.434c-0.116,0.113-0.271,0.193-0.464,0.244
			c-0.194,0.051-0.433,0.076-0.715,0.076h-1.77c-0.286,0-0.525-0.025-0.717-0.076c-0.192-0.051-0.345-0.131-0.462-0.244
			c-0.115-0.112-0.198-0.258-0.249-0.434c-0.05-0.178-0.075-0.39-0.075-0.637v-0.992c0-0.248,0.025-0.46,0.075-0.637
			c0.051-0.177,0.134-0.321,0.249-0.434c0.117-0.113,0.27-0.195,0.462-0.248c0.191-0.053,0.431-0.079,0.717-0.079H105.601z
			 M104.906,41.309c0.139,0,0.253-0.014,0.341-0.038c0.089-0.025,0.159-0.067,0.212-0.124c0.053-0.058,0.09-0.135,0.11-0.231
			c0.021-0.096,0.031-0.218,0.031-0.365V39.18h-2.287c-0.135,0-0.246,0.013-0.335,0.038c-0.088,0.025-0.159,0.066-0.212,0.124
			s-0.089,0.135-0.11,0.234c-0.021,0.099-0.031,0.22-0.031,0.362v0.613c0,0.147,0.01,0.269,0.031,0.365s0.058,0.173,0.11,0.231
			c0.053,0.057,0.124,0.099,0.212,0.124c0.089,0.024,0.2,0.038,0.335,0.038H104.906z"/>
		<path fill="#231F20" d="M110.145,36.969c0.093,0,0.14,0.051,0.14,0.152v1.233h2.369c0.282,0,0.521,0.026,0.714,0.079
			c0.194,0.053,0.349,0.135,0.465,0.248c0.116,0.112,0.199,0.257,0.25,0.434c0.05,0.177,0.075,0.389,0.075,0.637v0.992
			c0,0.248-0.025,0.459-0.075,0.637c-0.051,0.176-0.134,0.321-0.25,0.434c-0.116,0.113-0.271,0.193-0.465,0.244
			c-0.193,0.051-0.432,0.076-0.714,0.076h-1.77c-0.286,0-0.525-0.025-0.717-0.076s-0.346-0.131-0.462-0.244
			c-0.115-0.112-0.198-0.258-0.249-0.434c-0.051-0.178-0.076-0.39-0.076-0.637v-3.623c0-0.101,0.049-0.152,0.146-0.152H110.145z
			 M110.284,39.18v1.371c0,0.147,0.01,0.269,0.031,0.365c0.021,0.096,0.058,0.173,0.11,0.231c0.053,0.057,0.123,0.099,0.212,0.124
			c0.089,0.024,0.2,0.038,0.335,0.038h1.593c0.139,0,0.252-0.014,0.341-0.038c0.089-0.025,0.159-0.067,0.212-0.124
			c0.053-0.058,0.089-0.135,0.11-0.231s0.031-0.218,0.031-0.365v-0.613c0-0.142-0.01-0.263-0.031-0.362
			c-0.021-0.099-0.058-0.176-0.11-0.234s-0.123-0.099-0.212-0.124s-0.202-0.038-0.341-0.038H110.284z"/>
		<path fill="#231F20" d="M119.295,38.354c0.046,0,0.077,0.017,0.092,0.051c0.015,0.035,0.012,0.075-0.01,0.121l-2.427,4.663
			c-0.084,0.161-0.203,0.279-0.356,0.354c-0.154,0.076-0.368,0.114-0.642,0.114h-0.442c-0.076,0-0.113-0.042-0.113-0.124v-0.565
			c0-0.082,0.037-0.124,0.113-0.124h0.373c0.16,0,0.268-0.053,0.322-0.158l0.341-0.654c-0.105-0.009-0.187-0.037-0.243-0.082
			c-0.057-0.047-0.11-0.117-0.161-0.214l-1.706-3.21c-0.021-0.046-0.024-0.086-0.01-0.121c0.015-0.034,0.046-0.051,0.092-0.051
			h0.727c0.072,0,0.122,0.032,0.152,0.096l1.402,2.652c0.034,0.064,0.061,0.107,0.079,0.127c0.019,0.021,0.043,0.031,0.072,0.031
			l1.485-2.81c0.029-0.064,0.08-0.096,0.151-0.096H119.295z"/>
		<path fill="#EE3C39" d="M123.219,37.313c0.093,0,0.173,0.007,0.24,0.021s0.127,0.04,0.177,0.079
			c0.051,0.039,0.096,0.092,0.136,0.159c0.04,0.066,0.081,0.155,0.124,0.265l1.314,3.306c0.017,0.041,0.046,0.063,0.088,0.063h0.076
			c0.042,0,0.071-0.021,0.088-0.063l1.314-3.306c0.042-0.11,0.083-0.199,0.124-0.265c0.039-0.067,0.085-0.12,0.136-0.159
			c0.05-0.039,0.108-0.065,0.174-0.079c0.064-0.014,0.144-0.021,0.236-0.021h0.677c0.219,0,0.366,0.054,0.442,0.162
			c0.075,0.108,0.113,0.293,0.113,0.555v3.954c0,0.101-0.049,0.151-0.146,0.151h-0.645c-0.093,0-0.139-0.051-0.139-0.151v-3.596
			c0-0.046-0.017-0.069-0.051-0.069h-0.057c-0.042,0-0.069,0.019-0.082,0.055l-1.276,3.086c-0.051,0.124-0.103,0.229-0.155,0.313
			s-0.109,0.154-0.171,0.21c-0.061,0.056-0.13,0.095-0.208,0.116c-0.078,0.023-0.17,0.035-0.275,0.035h-0.303
			c-0.105,0-0.197-0.012-0.275-0.035c-0.078-0.021-0.147-0.061-0.208-0.116c-0.062-0.056-0.118-0.125-0.171-0.21
			s-0.104-0.189-0.154-0.313l-1.277-3.086c-0.013-0.037-0.04-0.055-0.082-0.055h-0.057c-0.034,0-0.051,0.023-0.051,0.069v3.596
			c0,0.101-0.046,0.151-0.139,0.151h-0.645c-0.097,0-0.146-0.051-0.146-0.151V38.03c0-0.262,0.038-0.447,0.114-0.555
			c0.075-0.108,0.225-0.162,0.448-0.162H123.219z"/>
		<path fill="#EE3C39" d="M133.096,37.313c0.484,0,0.832,0.119,1.043,0.358c0.21,0.239,0.315,0.592,0.315,1.061v0.51
			c0,0.469-0.105,0.822-0.315,1.061c-0.211,0.239-0.559,0.358-1.043,0.358h-2.616v1.323c0,0.101-0.046,0.151-0.139,0.151h-0.683
			c-0.097,0-0.146-0.051-0.146-0.151V37.52c0-0.138,0.063-0.207,0.189-0.207H133.096z M130.479,39.751h2.42
			c0.215,0,0.367-0.05,0.455-0.151c0.089-0.101,0.133-0.255,0.133-0.461v-0.262c0-0.207-0.044-0.36-0.133-0.461
			c-0.088-0.101-0.24-0.152-0.455-0.152h-2.338c-0.055,0-0.082,0.028-0.082,0.083V39.751z"/>
		<path fill="#EE3C39" d="M139.472,37.313c0.093,0,0.14,0.05,0.14,0.151v0.654c0,0.101-0.047,0.151-0.14,0.151h-3.166
			c-0.122,0-0.208,0.035-0.259,0.104s-0.076,0.163-0.076,0.282v0.234c0,0.257,0.11,0.386,0.329,0.386h2.369
			c0.367,0,0.643,0.102,0.828,0.307c0.186,0.204,0.278,0.497,0.278,0.878v0.551c0,0.336-0.091,0.606-0.271,0.813
			c-0.182,0.207-0.464,0.311-0.847,0.311h-3.501c-0.098,0-0.146-0.051-0.146-0.151v-0.654c0-0.101,0.048-0.151,0.146-0.151h3.317
			c0.122,0,0.208-0.035,0.259-0.104s0.076-0.163,0.076-0.283v-0.282c0-0.257-0.109-0.386-0.329-0.386h-2.369
			c-0.366,0-0.643-0.102-0.828-0.307c-0.186-0.204-0.278-0.497-0.278-0.878v-0.503c0-0.335,0.091-0.606,0.272-0.813
			c0.181-0.207,0.463-0.31,0.847-0.31H139.472z"/>
		<path fill="#231F20" d="M147.421,37.313c0.098,0,0.146,0.05,0.146,0.151v0.675c0,0.106-0.048,0.159-0.146,0.159h-1.983v3.685
			c0,0.101-0.047,0.151-0.14,0.151h-0.688c-0.093,0-0.14-0.051-0.14-0.151v-3.685h-1.983c-0.098,0-0.146-0.053-0.146-0.159v-0.675
			c0-0.101,0.048-0.151,0.146-0.151H147.421z"/>
		<path fill="#231F20" d="M151.199,38.354c0.215,0,0.394,0.02,0.534,0.059c0.142,0.039,0.253,0.103,0.335,0.192
			c0.082,0.09,0.14,0.207,0.174,0.352c0.033,0.145,0.051,0.32,0.051,0.527v0.654c0,0.147-0.029,0.249-0.089,0.307
			c-0.059,0.058-0.149,0.086-0.271,0.086h-3.191v0.166c0,0.216,0.048,0.372,0.143,0.469c0.095,0.096,0.278,0.145,0.553,0.145h2.635
			c0.076,0,0.114,0.041,0.114,0.123v0.579c0,0.083-0.038,0.124-0.114,0.124h-2.724c-0.286,0-0.525-0.025-0.717-0.076
			s-0.346-0.131-0.461-0.244c-0.116-0.112-0.199-0.258-0.25-0.434c-0.051-0.178-0.076-0.39-0.076-0.637v-0.992
			c0-0.248,0.025-0.46,0.076-0.637s0.134-0.321,0.25-0.434c0.115-0.113,0.27-0.195,0.461-0.248s0.431-0.079,0.717-0.079H151.199z
			 M148.741,39.917h2.56c0.071,0,0.107-0.039,0.107-0.117v-0.29c0-0.142-0.027-0.243-0.082-0.303s-0.156-0.09-0.304-0.09h-1.586
			c-0.274,0-0.458,0.047-0.553,0.142c-0.095,0.094-0.143,0.251-0.143,0.472V39.917z"/>
		<path fill="#231F20" d="M156.862,38.354c0.075,0,0.113,0.041,0.113,0.124v0.578c0,0.083-0.038,0.124-0.113,0.124h-2.452
			c-0.139,0-0.253,0.013-0.341,0.038c-0.089,0.025-0.158,0.066-0.209,0.124s-0.086,0.135-0.107,0.234
			c-0.021,0.099-0.031,0.22-0.031,0.362v0.613c0,0.147,0.01,0.269,0.031,0.365s0.057,0.173,0.107,0.231
			c0.051,0.057,0.12,0.099,0.209,0.124c0.088,0.024,0.202,0.038,0.341,0.038h2.452c0.075,0,0.113,0.041,0.113,0.123v0.579
			c0,0.083-0.038,0.124-0.113,0.124h-2.541c-0.286,0-0.525-0.025-0.717-0.076s-0.346-0.131-0.461-0.244
			c-0.116-0.112-0.199-0.258-0.25-0.434c-0.051-0.178-0.076-0.39-0.076-0.637v-0.992c0-0.248,0.025-0.46,0.076-0.637
			s0.134-0.321,0.25-0.434c0.115-0.113,0.27-0.195,0.461-0.248s0.431-0.079,0.717-0.079H156.862z"/>
		<path fill="#231F20" d="M158.341,36.969c0.092,0,0.139,0.051,0.139,0.152v1.233h2.363c0.282,0,0.521,0.026,0.714,0.079
			c0.194,0.053,0.349,0.135,0.465,0.248c0.115,0.112,0.199,0.257,0.249,0.434c0.051,0.177,0.076,0.389,0.076,0.637v2.232
			c0,0.101-0.046,0.151-0.139,0.151h-0.619c-0.093,0-0.14-0.051-0.14-0.151v-1.998c0-0.143-0.008-0.263-0.025-0.362
			c-0.017-0.099-0.049-0.177-0.098-0.234c-0.049-0.058-0.115-0.099-0.199-0.124c-0.084-0.025-0.193-0.038-0.328-0.038h-2.319v2.755
			c0,0.101-0.047,0.151-0.139,0.151h-0.62c-0.092,0-0.139-0.051-0.139-0.151v-4.863c0-0.101,0.047-0.152,0.139-0.152H158.341z"/>
		<path fill="#231F20" d="M166.429,38.354c0.282,0,0.521,0.026,0.715,0.079c0.193,0.053,0.349,0.135,0.464,0.248
			c0.116,0.112,0.199,0.257,0.25,0.434s0.075,0.389,0.075,0.637v2.232c0,0.101-0.046,0.151-0.139,0.151h-0.619
			c-0.093,0-0.139-0.051-0.139-0.151v-1.998c0-0.143-0.009-0.263-0.025-0.362c-0.018-0.099-0.05-0.177-0.099-0.234
			c-0.048-0.058-0.114-0.099-0.198-0.124c-0.085-0.025-0.194-0.038-0.329-0.038h-1.681c-0.135,0-0.246,0.013-0.335,0.038
			c-0.089,0.025-0.159,0.066-0.212,0.124c-0.053,0.057-0.09,0.135-0.11,0.234c-0.021,0.099-0.031,0.219-0.031,0.362v1.998
			c0,0.101-0.047,0.151-0.14,0.151h-0.619c-0.097,0-0.146-0.051-0.146-0.151v-2.232c0-0.248,0.025-0.46,0.076-0.637
			s0.134-0.321,0.249-0.434c0.116-0.113,0.271-0.195,0.462-0.248s0.431-0.079,0.717-0.079H166.429z"/>
		<path fill="#231F20" d="M171.952,38.354c0.282,0,0.52,0.026,0.714,0.079c0.193,0.053,0.349,0.135,0.465,0.248
			c0.115,0.112,0.198,0.257,0.249,0.434s0.076,0.389,0.076,0.637v0.992c0,0.248-0.025,0.459-0.076,0.637
			c-0.051,0.176-0.134,0.321-0.249,0.434c-0.116,0.113-0.271,0.193-0.465,0.244c-0.194,0.051-0.432,0.076-0.714,0.076h-1.789
			c-0.286,0-0.525-0.025-0.717-0.076s-0.346-0.131-0.461-0.244c-0.116-0.112-0.199-0.258-0.25-0.434
			c-0.051-0.178-0.076-0.39-0.076-0.637v-0.992c0-0.248,0.025-0.46,0.076-0.637s0.134-0.321,0.25-0.434
			c0.115-0.113,0.27-0.195,0.461-0.248s0.431-0.079,0.717-0.079H171.952z M169.563,40.571c0,0.147,0.01,0.269,0.031,0.365
			c0.021,0.097,0.058,0.173,0.11,0.231s0.124,0.099,0.212,0.124c0.089,0.025,0.2,0.038,0.335,0.038h1.611
			c0.139,0,0.253-0.013,0.342-0.038c0.088-0.025,0.158-0.066,0.211-0.124s0.09-0.134,0.111-0.231
			c0.021-0.096,0.031-0.218,0.031-0.365v-0.654c0-0.143-0.011-0.262-0.031-0.358c-0.021-0.096-0.059-0.174-0.111-0.234
			c-0.053-0.06-0.123-0.101-0.211-0.124c-0.089-0.023-0.203-0.035-0.342-0.035h-1.611c-0.135,0-0.246,0.012-0.335,0.035
			c-0.088,0.023-0.159,0.064-0.212,0.124c-0.053,0.06-0.089,0.138-0.11,0.234c-0.021,0.097-0.031,0.216-0.031,0.358V40.571z"/>
		<path fill="#231F20" d="M174.966,36.969c0.092,0,0.139,0.051,0.139,0.152v4.863c0,0.101-0.047,0.151-0.139,0.151h-0.62
			c-0.092,0-0.139-0.051-0.139-0.151v-4.863c0-0.101,0.047-0.152,0.139-0.152H174.966z"/>
		<path fill="#231F20" d="M179.143,38.354c0.282,0,0.52,0.026,0.714,0.079c0.193,0.053,0.349,0.135,0.465,0.248
			c0.115,0.112,0.198,0.257,0.249,0.434s0.076,0.389,0.076,0.637v0.992c0,0.248-0.025,0.459-0.076,0.637
			c-0.051,0.176-0.134,0.321-0.249,0.434c-0.116,0.113-0.271,0.193-0.465,0.244c-0.194,0.051-0.432,0.076-0.714,0.076h-1.789
			c-0.286,0-0.525-0.025-0.717-0.076s-0.346-0.131-0.461-0.244c-0.116-0.112-0.199-0.258-0.25-0.434
			c-0.051-0.178-0.076-0.39-0.076-0.637v-0.992c0-0.248,0.025-0.46,0.076-0.637s0.134-0.321,0.25-0.434
			c0.115-0.113,0.27-0.195,0.461-0.248s0.431-0.079,0.717-0.079H179.143z M176.754,40.571c0,0.147,0.01,0.269,0.031,0.365
			c0.021,0.097,0.058,0.173,0.11,0.231s0.124,0.099,0.212,0.124c0.089,0.025,0.2,0.038,0.335,0.038h1.611
			c0.139,0,0.253-0.013,0.342-0.038c0.088-0.025,0.158-0.066,0.211-0.124s0.09-0.134,0.111-0.231
			c0.021-0.096,0.031-0.218,0.031-0.365v-0.654c0-0.143-0.011-0.262-0.031-0.358c-0.021-0.096-0.059-0.174-0.111-0.234
			c-0.053-0.06-0.123-0.101-0.211-0.124c-0.089-0.023-0.203-0.035-0.342-0.035h-1.611c-0.135,0-0.246,0.012-0.335,0.035
			c-0.088,0.023-0.159,0.064-0.212,0.124c-0.053,0.06-0.089,0.138-0.11,0.234c-0.021,0.097-0.031,0.216-0.031,0.358V40.571z"/>
		<path fill="#231F20" d="M184.608,38.354c0.287,0,0.525,0.026,0.718,0.079c0.191,0.053,0.347,0.134,0.464,0.245
			c0.118,0.11,0.201,0.253,0.25,0.43c0.048,0.177,0.072,0.389,0.072,0.637v2.507c0,0.252-0.024,0.467-0.072,0.644
			c-0.049,0.177-0.132,0.321-0.25,0.435c-0.117,0.112-0.272,0.195-0.464,0.248c-0.192,0.053-0.431,0.079-0.718,0.079h-2.976
			c-0.076,0-0.114-0.042-0.114-0.124v-0.579c0-0.082,0.038-0.124,0.114-0.124h2.888c0.139,0,0.253-0.013,0.341-0.037
			c0.089-0.025,0.159-0.067,0.212-0.124c0.053-0.058,0.09-0.136,0.11-0.234c0.021-0.099,0.031-0.222,0.031-0.368v-0.18h-2.376
			c-0.286,0-0.525-0.026-0.717-0.079s-0.346-0.136-0.461-0.248c-0.116-0.112-0.199-0.257-0.25-0.435
			c-0.051-0.176-0.076-0.391-0.076-0.644v-0.723c0-0.252,0.025-0.467,0.076-0.644s0.134-0.321,0.25-0.434
			c0.115-0.113,0.27-0.195,0.461-0.248s0.431-0.079,0.717-0.079H184.608z M182.239,40.475c0,0.12,0.01,0.22,0.031,0.3
			c0.021,0.081,0.058,0.147,0.11,0.2c0.053,0.053,0.124,0.09,0.212,0.114c0.089,0.023,0.2,0.034,0.335,0.034h2.287v-1.288
			c0-0.243-0.047-0.416-0.142-0.517c-0.095-0.101-0.279-0.151-0.553-0.151h-1.593c-0.135,0-0.246,0.012-0.335,0.035
			c-0.088,0.023-0.159,0.061-0.212,0.113c-0.053,0.053-0.089,0.121-0.11,0.204c-0.021,0.083-0.031,0.181-0.031,0.296V40.475z"/>
		<path fill="#231F20" d="M187.661,36.955c0.092,0,0.139,0.051,0.139,0.151v0.654c0,0.106-0.047,0.159-0.139,0.159h-0.62
			c-0.097,0-0.145-0.053-0.145-0.159v-0.654c0-0.101,0.048-0.151,0.145-0.151H187.661z M187.661,38.354
			c0.092,0,0.139,0.053,0.139,0.158v3.472c0,0.101-0.047,0.151-0.139,0.151h-0.62c-0.092,0-0.139-0.051-0.139-0.151v-3.472
			c0-0.105,0.047-0.158,0.139-0.158H187.661z"/>
		<path fill="#231F20" d="M191.818,38.354c0.215,0,0.394,0.02,0.534,0.059c0.142,0.039,0.253,0.103,0.335,0.192
			c0.082,0.09,0.14,0.207,0.174,0.352c0.033,0.145,0.051,0.32,0.051,0.527v0.654c0,0.147-0.029,0.249-0.089,0.307
			c-0.059,0.058-0.149,0.086-0.271,0.086h-3.191v0.166c0,0.216,0.048,0.372,0.143,0.469c0.095,0.096,0.278,0.145,0.553,0.145h2.635
			c0.076,0,0.114,0.041,0.114,0.123v0.579c0,0.083-0.038,0.124-0.114,0.124h-2.724c-0.286,0-0.525-0.025-0.717-0.076
			s-0.346-0.131-0.461-0.244c-0.116-0.112-0.199-0.258-0.25-0.434c-0.051-0.178-0.076-0.39-0.076-0.637v-0.992
			c0-0.248,0.025-0.46,0.076-0.637s0.134-0.321,0.25-0.434c0.115-0.113,0.27-0.195,0.461-0.248s0.431-0.079,0.717-0.079H191.818z
			 M189.36,39.917h2.56c0.071,0,0.107-0.039,0.107-0.117v-0.29c0-0.142-0.027-0.243-0.082-0.303s-0.156-0.09-0.304-0.09h-1.586
			c-0.274,0-0.458,0.047-0.553,0.142c-0.095,0.094-0.143,0.251-0.143,0.472V39.917z"/>
		<path fill="#231F20" d="M197.588,38.354c0.075,0,0.113,0.041,0.113,0.124v0.551c0,0.083-0.038,0.124-0.113,0.124h-2.851
			c-0.13,0-0.221,0.026-0.271,0.079s-0.076,0.13-0.076,0.231v0.103c0,0.092,0.025,0.165,0.076,0.217s0.142,0.079,0.271,0.079h2.13
			c0.354,0,0.606,0.081,0.759,0.241c0.151,0.161,0.227,0.388,0.227,0.682v0.385c0,0.152-0.017,0.287-0.05,0.406
			c-0.034,0.12-0.09,0.221-0.168,0.304s-0.18,0.146-0.307,0.189c-0.126,0.044-0.282,0.065-0.467,0.065h-3.236
			c-0.075,0-0.113-0.041-0.113-0.124V41.46c0-0.083,0.038-0.124,0.113-0.124h2.996c0.13,0,0.222-0.025,0.274-0.076
			s0.079-0.135,0.079-0.254v-0.187c0-0.092-0.026-0.163-0.079-0.214c-0.053-0.05-0.145-0.076-0.274-0.076h-2.124
			c-0.354,0-0.606-0.079-0.758-0.237c-0.151-0.159-0.228-0.389-0.228-0.692v-0.303c0-0.142,0.017-0.272,0.051-0.389
			c0.033-0.117,0.089-0.217,0.167-0.299c0.078-0.083,0.181-0.146,0.307-0.189c0.127-0.044,0.282-0.065,0.468-0.065H197.588z"/>
	</g>
</g>
</svg>
